<?xml version="1.0" encoding="UTF-8"?>
<svg xmlns="http://www.w3.org/2000/svg" viewBox="0 0 267.01 118.22">
  <defs>
    <style>
      .cls-1 {
        fill: #fff;
        stroke: #fff;
        stroke-miterlimit: 10;
      }
    </style>
  </defs>
  <g id="Capa_7" data-name="Capa 7">
    <path class="cls-1" d="M144.25,94.57h43.58l2.96-17.53-1.61-.29c-2.69,14.9-15.53,13.82-15.53,13.82l-26.17-.21-3.23,4.21Z"/>
    <path class="cls-1" d="M180.08,28.36h-38.87l-1.55,18.77h2.1c1.15-15.02,15.34-14.29,15.34-14.29l19.45.06,3.52-4.54Z"/>
  </g>
  <g id="Capa_8" data-name="Capa 8">
    <path class="cls-1" d="M202.28.52c-4.83-.8-14.97,21.25-14.97,21.25l-61.82,92.41v2.41L189.56,22.58C206.59,1.3,202.28.52,202.28.52ZM190.63,18.1s6.32-14.98,10.48-15.27c0,0,1.24,5.07-10.48,15.27Z"/>
  </g>
  <g id="Capa_6" data-name="Capa 6">
    <path class="cls-1" d="M195.89,28.07v1.81h4.18s5.27.96,5.47,6.53v35.79s-1.5,11.21,9.14,19.68c0,0,19.16,11.27,34.14-1,0,0,4.46-2.73,6.18-8.38,0,0,2.24-5.92,2.03-17.16v-30s.86-6.25,9.47-5.45l-.04-1.81h-23.39v1.81s3.68-.16,4.92.22c0,0,3.85.67,4.35,5.41l.2,29.73s.27,15.97-3.55,19.22c0,0-16.96,17.32-31.81-.67,0,0-2.64-3.15-2.2-10.82l-.06-36.24s-.29-8.15,9.61-6.84v-1.81h-28.61Z"/>
  </g>
  <g id="Capa_9" data-name="Capa 9">
    <polygon class="cls-1" points="228.75 22.79 230.72 22.79 244.82 5.94 233.88 5.94 228.75 22.79"/>
  </g>
  <g id="Capa_5" data-name="Capa 5">
    <path class="cls-1" d="M107.9,69.82h-26.4l-4.63,10.76c-1.14,2.65-1.71,4.63-1.71,5.93,0,1.04.49,1.95,1.48,2.74.99.79,3.13,1.3,6.41,1.53v1.86h-21.47v-1.86c2.85-.5,4.69-1.16,5.53-1.96,1.71-1.61,3.6-4.88,5.68-9.81l23.99-56.12h1.76l23.74,56.73c1.91,4.56,3.65,7.52,5.21,8.88,1.56,1.36,3.73,2.12,6.51,2.29v1.86h-26.91v-1.86c2.72-.13,4.55-.59,5.51-1.36s1.43-1.71,1.43-2.82c0-1.48-.67-3.8-2.01-6.99l-4.12-9.81ZM106.49,66.1l-11.57-27.56-11.87,27.56h23.44Z"/>
  </g>
  <g id="Capa_4" data-name="Capa 4">
    <path class="cls-1" d="M8.26,42.99h-1.86l1.37-16.55h48.97L13.24,88.65h27.15s12.84,1.08,15.53-13.82l1.61.29-2.96,17.53H.5v-1.81L42.98,30.4h-21.19s-12.85-1.59-13.53,12.6Z"/>
  </g>
</svg>